<?xml version="1.0" encoding="UTF-8"?>
<svg id="Layer_2" data-name="Layer 2" xmlns="http://www.w3.org/2000/svg" viewBox="0 0 331.58 115.77">
  <defs>
    <style>
      .cls-1 {
        fill: #1f2937;
      }

      .cls-2 {
        fill: #6366f1;
      }
    </style>
  </defs>
  <g id="Layer_1-2" data-name="Layer 1">
    <path class="cls-2" d="M331.58,77.18l-31.78,21.58-34.72-17.34,6.14-13.94c4.97-11.31,9.95-22.64,14.92-33.95L300.93,0l-6.28,36.11c-.77,4.42-1.34,8.91-1.77,13.69-.45,5.33-.39,8.09-.18,10.58.32,3.76.52,5.51,1.68,7.66,2.09,3.87,3.47,4.67,3.83,4.83,1.72-.79,4.72-7.09,6.37-10.49,2.02-4.22,3.61-8.64,4.71-13.13l2.95-12.1,19.34,40.03Z"/>
    <g>
      <path class="cls-1" d="M16.54,83.36c2.43,0,4.41-.7,5.95-2.09,1.54-1.4,2.32-3.23,2.32-5.51,0-1.4-.66-2.48-1.98-3.25-1.32-.77-4.12-2-8.38-3.69s-7.66-3.64-10.2-5.84c-2.54-2.21-3.8-5.26-3.8-9.15,0-2.94.81-5.62,2.43-8.05,1.54-2.28,3.66-4.04,6.34-5.29,2.68-1.25,5.68-1.87,8.99-1.87,2.94,0,5.83.68,8.66,2.04,2.83,1.36,5.31,3.29,7.44,5.79l-6.73,7.72c-1.25-1.91-2.63-3.31-4.13-4.19s-3.22-1.32-5.13-1.32-3.53.44-4.63,1.32-1.65,2.06-1.65,3.53c0,1.25.61,2.32,1.82,3.2,1.21.88,3.69,2.02,7.44,3.42l.88.33c3.6,1.4,5.84,2.35,6.73,2.87,5.29,2.72,7.94,6.8,7.94,12.24,0,3.75-.88,6.95-2.65,9.59-1.69,2.72-4.08,4.83-7.17,6.34s-6.54,2.26-10.36,2.26c-3.38,0-6.49-.62-9.32-1.87-2.83-1.25-5.27-3.09-7.33-5.51l6.95-8.16c2.65,3.46,5.84,5.18,9.59,5.18Z"/>
      <path class="cls-1" d="M95.65,79.83c-2.24,4.26-5.38,7.64-9.43,10.14-4.12,2.5-8.67,3.75-13.67,3.75-3.31,0-6.43-.59-9.37-1.76-2.94-1.18-5.55-2.87-7.83-5.07v28.89h-11.91V38.59h11.91v6.62c2.28-2.13,4.89-3.77,7.83-4.91s6.03-1.71,9.26-1.71c4.92,0,9.43,1.19,13.51,3.58,4.08,2.39,7.3,5.75,9.65,10.09,2.28,4.12,3.42,8.6,3.42,13.45,0,5.15-1.12,9.85-3.36,14.11ZM84.9,57.5c-1.32-2.54-3.23-4.46-5.73-5.79-2.57-1.4-5.29-2.09-8.16-2.09-3.16,0-5.94.68-8.33,2.04-2.39,1.36-4.25,3.36-5.57,6.01-1.32,2.65-1.98,5.33-1.98,8.05,0,3.31.66,6.25,1.98,8.82,1.32,2.57,3.23,4.56,5.73,5.95,2.35,1.47,5.07,2.21,8.16,2.21s5.71-.72,8.1-2.15c2.39-1.43,4.28-3.44,5.68-6.01,1.4-2.57,2.09-5.51,2.09-8.82,0-2.94-.66-5.68-1.98-8.21Z"/>
      <path class="cls-1" d="M109.05,52.04c2.35-4.26,5.55-7.61,9.59-10.03s8.49-3.64,13.34-3.64c3.31,0,6.47.57,9.48,1.71,3.01,1.14,5.66,2.78,7.94,4.91v-6.39h11.8v55.13h-11.8v-6.84c-2.35,2.21-5,3.9-7.94,5.07-2.94,1.18-6.1,1.76-9.48,1.76-4.93,0-9.37-1.25-13.34-3.75-4.12-2.43-7.31-5.77-9.59-10.03-2.28-4.26-3.42-9.04-3.42-14.33,0-4.92,1.14-9.45,3.42-13.56ZM119.96,74.54c1.4,2.65,3.27,4.67,5.62,6.06s5.07,2.09,8.16,2.09,5.81-.73,8.16-2.21c2.43-1.47,4.3-3.47,5.62-6.01s1.99-5.46,1.99-8.77c0-3.09-.66-5.84-1.99-8.27-1.4-2.57-3.27-4.56-5.62-5.95s-5.07-2.09-8.16-2.09-5.84.7-8.27,2.09c-2.5,1.4-4.41,3.36-5.73,5.9-1.32,2.54-1.98,5.31-1.98,8.33,0,3.31.73,6.25,2.21,8.82Z"/>
      <path class="cls-1" d="M186.61,53.26c-1.58,2.06-2.37,5.77-2.37,11.14v29.33h-12.02l.11-29.33c.07-8.53,1.93-14.83,5.57-18.91,3.64-4.08,9.39-6.12,17.26-6.12,4.85,0,7.57.04,8.16.11v10.81l-8.16-.11c-4.12,0-6.96,1.03-8.55,3.09Z"/>
      <path class="cls-1" d="M221.84,54.8l15.44-16.21h15.88l-24.26,25.8,25.03,29.33h-15.33l-16.76-19.85v19.85h-11.91V5.51h11.91v49.29Z"/>
    </g>
  </g>
</svg>